<svg width="65" height="79" viewBox="0 0 65 79" fill="none" xmlns="http://www.w3.org/2000/svg">
<path d="M65 39.5C65 61.3152 50.4493 79 32.5 79C14.5507 79 0 61.3152 0 39.5C0 17.6848 14.5507 0 32.5 0C50.4493 0 65 17.6848 65 39.5Z" fill="#FF0000"/>
<path d="M11.5096 39.2505H53.093V44.5893H11.5096V39.2505ZM28.9478 33.3629H35.5554V40.3981H28.9478V33.3629ZM16.1299 47.7326H48.0752V62.6512H41.4675V52.9716H16.1299V47.7326ZM16.8255 17.5962H23.3338V21.6876H41.2688V17.5962H47.8268V35.4585H16.8255V17.5962ZM23.3338 26.6272V30.2695H41.2688V26.6272H23.3338Z" fill="white"/>
</svg>
