<svg width="876" height="480" viewBox="0 0 876 480" fill="none" xmlns="http://www.w3.org/2000/svg">
<circle cx="146" cy="411" r="50" fill="#FF7D35"/>
<circle cx="243" cy="411" r="50" fill="#FF7D35"/>
<circle cx="339" cy="411" r="50" fill="#FF7D35"/>
<circle cx="435" cy="411" r="50" fill="#FF7D35"/>
<circle cx="531" cy="411" r="50" fill="#FF7D35"/>
<circle cx="627" cy="411" r="50" fill="#FF7D35"/>
<ellipse cx="723" cy="410.5" rx="50" ry="49.5" fill="#FF7D35"/>
<path fill-rule="evenodd" clip-rule="evenodd" d="M0.412598 423.85C5.73394 445.745 25.4686 462 48.9999 462C76.6141 462 98.9999 439.614 98.9999 412C98.9999 384.386 76.6141 362 48.9999 362C33.5649 362 19.7635 368.994 10.5917 379.985L0.412598 423.85Z" fill="#FF7D35"/>
<path fill-rule="evenodd" clip-rule="evenodd" d="M861.087 383.765C852.193 370.071 836.667 361 819 361C791.386 361 769 383.162 769 410.5C769 437.838 791.386 460 819 460C843.856 460 864.476 442.044 868.347 418.52L861.087 383.765Z" fill="#FF7D35"/>
<path fill-rule="evenodd" clip-rule="evenodd" d="M85.8516 17H784.12L868.465 417.706C868.284 419.773 867.444 423.223 867 425H0L85.8516 17Z" fill="#FF7D35"/>
<path d="M164.5 17L98.5 425C107.3 453.8 133.833 461 146 461C174.8 462.2 190.333 437.5 194.5 425L248 17H164.5Z" fill="#3F3F3F"/>
<path d="M316.5 17L291 426C299.8 454.8 326.333 462 338.5 462C367.3 463.2 382.833 438.5 387 426L390.5 17H316.5Z" fill="#3F3F3F"/>
<path d="M475 16L483 425C491.8 453.8 519.333 462 531.5 462C560.3 463.2 576 437 579 425L557.5 16H475Z" fill="#3F3F3F"/>
<path d="M624.5 17L676 426C684.8 454.8 712.333 463 724.5 463C753.3 464.2 769 438 772 426L708.5 17H624.5Z" fill="#3F3F3F"/>
<path d="M120.544 115.455C97.8253 146.976 111.078 164.467 120.544 169.272C120.544 153.127 134.254 128.589 141.109 118.338C149.727 106.037 157.757 106.165 160.695 107.767C155.798 126.026 146.985 141.082 141.109 146.208C127.008 166.966 125.441 195.861 126.42 207.713C135.038 235.391 163.959 223.73 177.342 214.441C201.824 200.986 221.736 153.255 226.306 129.87C230.223 98.3487 214.881 93.6717 206.721 95.2733C209.071 127.564 195.949 158.06 189.094 169.272C162.457 220.783 149.923 220.847 146.985 214.441C139.934 192.914 154.493 161.264 162.653 148.13C184.589 115.839 175.71 101.36 168.529 98.1563C146.593 89.6993 127.399 106.165 120.544 115.455Z" fill="#F2F2F2"/>
<path fill-rule="evenodd" clip-rule="evenodd" d="M213.501 193.953C213.23 184.422 218.039 164.295 239.435 160.04C245.919 159.596 258.238 162.699 255.644 178.659C254.294 186.638 247.216 202.332 229.71 201.268C228.629 207.253 229.872 218.291 243.488 214.567C248.62 213.016 260.507 206.056 266.991 190.628L273.474 189.298C269.962 198.386 259.21 217.227 244.298 219.887C234.572 220.774 214.797 216.828 213.501 193.953ZM230.063 196.574C228.712 189.48 230.387 174.363 247.893 170.64C248.703 177.733 246.272 192.85 230.063 196.574Z" fill="#F2F2F2"/>
<path fill-rule="evenodd" clip-rule="evenodd" d="M713.026 316.953C712.756 307.422 717.565 287.295 738.961 283.04C745.444 282.596 757.763 285.699 755.17 301.659C753.819 309.638 746.741 325.332 729.235 324.268C728.155 330.253 729.398 341.291 743.013 337.567C748.146 336.016 760.033 329.056 766.516 313.628L773 312.298C769.488 321.386 758.736 340.227 743.824 342.887C734.098 343.774 714.323 339.828 713.026 316.953ZM729.589 319.574C728.238 312.48 729.913 297.363 747.419 293.64C748.229 300.733 745.798 315.85 729.589 319.574Z" fill="#F2F2F2"/>
<path d="M276.306 220C258.425 219.009 266.083 192.326 272.147 179.109C276.306 171.178 277.345 165.065 277.345 163C281.087 163.496 282.716 166.098 283.062 167.337C284.31 172.789 281.503 182 279.944 185.924C278.696 187.411 276.999 198.522 276.306 203.891C286.701 172.17 296.577 163.826 300.215 163.62C306.452 163.124 309.397 167.543 310.09 169.815C311.754 177.746 307.665 193.359 305.413 200.174C301.67 211.574 305.586 213.185 308.011 212.565C315.08 211.574 321.699 196.87 324.124 189.641H329.322C325.58 201.537 321.872 208.228 320.486 210.087C316.744 217.026 309.571 218.761 306.452 218.761C296.888 215.291 294.844 202.859 295.017 197.076C295.017 190.137 300.561 176.837 303.333 171.054C304.165 166.593 301.601 167.13 300.215 167.957C297.304 171.922 289.993 185.304 286.701 191.5C282.543 198.315 278.385 216.283 278.385 218.141C278.385 219.628 276.999 220 276.306 220Z" fill="#F2F2F2"/>
<path d="M416.959 220C399.078 219.009 406.736 192.326 412.8 179.109C416.959 171.178 417.998 165.065 417.998 163C421.74 163.496 423.369 166.098 423.716 167.337C424.963 172.789 422.156 182 420.597 185.924C419.349 187.411 417.652 198.522 416.959 203.891C427.354 172.17 437.23 163.826 440.868 163.62C447.105 163.124 450.051 167.543 450.744 169.815C452.407 177.746 448.318 193.359 446.066 200.174C442.323 211.574 446.239 213.185 448.664 212.565C455.733 211.574 462.352 196.87 464.777 189.641H469.975C466.233 201.537 462.525 208.228 461.139 210.087C457.397 217.026 450.224 218.761 447.105 218.761C437.541 215.291 435.497 202.859 435.67 197.076C435.67 190.137 441.214 176.837 443.987 171.054C444.818 166.593 442.254 167.13 440.868 167.957C437.957 171.922 430.646 185.304 427.354 191.5C423.196 198.315 419.038 216.283 419.038 218.141C419.038 219.628 417.652 220 416.959 220Z" fill="#F2F2F2"/>
<path d="M665.17 343C647.29 342.009 654.948 315.326 661.012 302.109C665.17 294.178 666.21 288.065 666.21 286C669.952 286.496 671.581 289.098 671.927 290.337C673.175 295.789 670.368 305 668.809 308.924C667.561 310.411 665.863 321.522 665.17 326.891C675.566 295.17 685.441 286.826 689.08 286.62C695.317 286.124 698.262 290.543 698.955 292.815C700.619 300.746 696.53 316.359 694.277 323.174C690.535 334.574 694.451 336.185 696.876 335.565C703.945 334.574 710.563 319.87 712.989 312.641H718.187C714.444 324.537 710.737 331.228 709.351 333.087C705.608 340.026 698.435 341.761 695.317 341.761C685.753 338.291 683.709 325.859 683.882 320.076C683.882 313.137 689.426 299.837 692.198 294.054C693.03 289.593 690.466 290.13 689.08 290.957C686.169 294.922 678.857 308.304 675.566 314.5C671.407 321.315 667.249 339.283 667.249 341.141C667.249 342.628 665.863 343 665.17 343Z" fill="#F2F2F2"/>
<path fill-rule="evenodd" clip-rule="evenodd" d="M356.348 164.22C351.787 158.413 339.93 151.528 328.984 170.442C324.044 182.678 318.609 208.893 336.395 215.861C340.196 216.898 349.051 216.235 354.068 205.284C356.918 209.432 363.645 217.479 367.749 216.483C371.93 216.483 381.887 210.884 388.272 188.485H382.571C379.748 195.744 372.488 210.262 366.039 210.262C363.569 210.262 359.312 206.155 362.049 189.73C364.785 173.304 363.189 182.471 362.049 189.107C364.139 175.627 369.688 147.172 375.16 141.199C374.78 138.088 372.994 131.493 368.89 130C367.369 131.867 362.733 141.324 356.348 164.22ZM351.871 164.884C347.311 165.507 337.962 170.733 337.05 186.661C335.909 206.571 337.62 209.682 340.47 210.926C342.56 211.755 348.109 208.81 353.582 190.394C354.152 190.394 358.712 163.64 351.871 164.884Z" fill="#F2F2F2"/>
<path d="M392.926 156.008C393.754 149.601 398.097 148.711 400.166 149.067C403.062 149.494 402.062 156.008 401.2 159.211C399.131 165.618 395.857 165.796 394.478 165.084C392.409 163.375 392.582 158.321 392.926 156.008Z" fill="#F2F2F2"/>
<path d="M394.478 178.965C396.546 173.413 391.203 169.533 388.272 168.287C389.1 172.558 385.859 178.965 384.135 181.635C382.067 185.479 381.205 191.779 381.033 194.448C381.033 201.282 383.101 206.906 384.135 208.863C386.204 216.551 393.271 217.406 396.546 216.872C403.992 213.455 410.68 199.431 413.093 192.846C411.439 192.419 409.301 193.024 408.439 193.38C402.234 207.475 396.546 211.711 394.478 212.067C390.341 214.629 388.962 204.236 388.789 198.719C389.203 189.323 392.754 181.635 394.478 178.965Z" fill="#F2F2F2"/>
<path d="M639.069 282.008C639.897 275.601 644.24 274.711 646.309 275.067C649.205 275.494 648.205 282.008 647.343 285.211C645.275 291.618 642 291.796 640.621 291.084C638.552 289.375 638.725 284.321 639.069 282.008Z" fill="#F2F2F2"/>
<path d="M640.621 304.965C642.689 299.413 637.346 295.533 634.415 294.287C635.243 298.558 632.002 304.965 630.278 307.635C628.21 311.479 627.348 317.779 627.176 320.448C627.176 327.282 629.244 332.906 630.278 334.863C632.347 342.551 639.414 343.406 642.689 342.872C650.135 339.455 656.823 325.431 659.236 318.846C657.582 318.419 655.444 319.024 654.582 319.38C648.377 333.475 642.689 337.711 640.621 338.067C636.484 340.629 635.105 330.236 634.932 324.719C635.346 315.323 638.897 307.635 640.621 304.965Z" fill="#F2F2F2"/>
<path fill-rule="evenodd" clip-rule="evenodd" d="M493.132 167.463C491.581 165.13 486.72 161.163 479.688 163.963C475.896 164.63 467.587 169.763 464.692 184.963C464.002 191.63 464.381 205.563 471.414 207.963C473.31 208.63 478.24 209.563 482.79 207.963C482.446 209.13 480.101 211.663 473.482 212.463C467.45 213.796 454.867 218.363 452.798 225.963C451.764 229.796 452.074 237.763 461.589 238.963C461.676 238.963 461.836 238.981 462.062 239.006C464.523 239.278 474.783 240.411 483.307 228.963C483.307 228.963 488.074 225.5 490.659 216L491.581 210.463C497.097 210.296 509.266 204.663 513.817 183.463C513.472 183.296 511.955 183.063 508.646 183.463C508.646 183.963 503.475 200.963 492.615 204.963C494.856 200.963 499.855 188.163 501.923 168.963C501.579 166.963 499.751 163.163 495.201 163.963C494.511 164.13 493.339 165.263 494.167 168.463L493.132 167.463ZM487.758 166.074C483.276 166.407 474.21 170.774 473.796 185.574C473.107 190.907 472.865 201.974 477.416 203.574C479.829 204.574 485.896 202.374 490.86 185.574C492.067 178.574 493.136 164.874 487.758 166.074ZM479.484 216.574C472.072 218.241 458.593 223.874 463.971 233.074C467.935 234.574 476.588 233.374 479.484 216.574Z" fill="#F2F2F2"/>
<path d="M372.047 272.767C376.609 262.258 377.274 251.604 377.036 247.59C382.168 244.963 386.302 254.523 387.728 259.631C386.587 270.14 382.976 281.524 381.313 285.902C376.751 301.665 376.561 312.173 377.036 315.457C392.432 252.407 407.685 243.941 413.387 247.59C421.101 249.17 418.573 274.019 415.736 289.854C420.682 266.426 430.315 252.037 434.77 247.59C447.315 241.46 452.352 254.523 453.302 261.82C455.013 267.95 452.114 280.429 450.451 285.902C447.03 292.032 444.749 310.349 444.036 318.741C443.466 337.131 449.976 338.809 453.302 337.35C462.425 330.344 468.032 310.349 469.696 301.227C471.976 299.476 476.348 300.497 478.249 301.227C469.696 338.882 457.103 346.837 451.876 346.107C428.498 337.35 430.731 305.241 434.77 290.281C443.893 263.134 443.323 254.888 441.898 254.158C435.055 254.158 421.94 292.105 416.238 311.079C411.106 327.717 409.348 341.364 409.111 346.107C401.698 347.858 397.944 332.971 396.994 325.309C395.283 308.671 399.607 295.024 401.983 290.281C409.396 271.891 411.249 258.537 411.249 254.158C402.696 248.904 389.153 292.835 383.451 315.457C377.749 332.971 376.323 343.188 376.323 346.107C362.638 352.237 361.593 325.309 362.781 311.079C364.492 290.938 369.671 277.145 372.047 272.767Z" fill="#F2F2F2"/>
<path fill-rule="evenodd" clip-rule="evenodd" d="M512.232 300.141C510.468 294.055 503.057 284.87 487.53 296.821C483.609 300.51 476.356 311.428 478.708 325.593C479.688 330.942 483.649 341.86 491.647 342.745C495.176 343.299 503.646 342.081 509.292 332.786C510.86 336.659 516.114 344.073 524.584 342.745C530.073 341.823 541.522 335.663 543.404 318.4C542.816 318.031 540.816 317.515 537.523 318.4C536.543 323.749 532.112 335.11 522.231 337.766C520.075 338.319 515.879 337.323 516.35 328.913C516.742 324.302 518.467 312.756 522.231 303.461C522.819 302.17 523.878 299.366 523.407 298.481C522.427 296.637 519.29 292.948 514.585 292.948C514.585 294.424 514.114 297.928 512.232 300.141ZM505.339 297.716C501.222 297.532 492.047 301.921 488.283 320.955C487.303 326.857 486.754 338.771 492.4 339.214C495.733 340.136 503.457 337.775 507.692 320.955C508.868 312.655 510.045 296.388 505.339 297.716Z" fill="#F2F2F2"/>
<path d="M537.313 318.378C539.396 295.144 548.943 290.475 553.455 291.044C561.787 291.044 563.176 297.119 562.829 300.156C562.829 303.8 559.357 310.405 557.621 313.253L557.101 311.544C561.683 301.522 560.746 299.776 559.704 300.156C551.373 300.156 547.389 312.304 546.438 318.378C543.324 334.322 550.513 337.549 554.497 337.169C566.578 330.791 569.945 320.845 570.119 316.669H575.847C576.68 316.669 576.541 317.808 576.367 318.378C569.702 340.244 557.968 343.813 552.935 342.864C538.771 341.041 536.619 325.78 537.313 318.378Z" fill="#F2F2F2"/>
<path d="M568.52 322.984C570.724 304.216 581.189 278.162 586.146 267.481C587.028 265.54 586.513 264.384 586.146 264.048C588.79 263.59 592.022 266.527 593.307 268.053C594.629 270.342 593.858 273.966 593.307 275.492C585.816 289.224 579.169 316.308 576.783 328.133C592.205 291.971 604.139 288.271 608.179 290.941C616.992 292.772 612.952 308.87 609.831 316.69C604.984 334.542 608.913 337.861 611.484 337.288C618.975 337.746 625.621 324.128 628.008 317.262C629.33 316.804 630.762 316.69 631.313 316.69C629.109 326.302 626.723 330.994 625.805 332.139C619.636 342.667 611.484 342.247 608.179 340.722C591.434 330.651 598.631 310.586 604.323 301.813C606.967 297.693 606.526 295.137 605.975 294.374C603.332 293.459 601.202 296.663 600.467 298.379L586.146 322.411C583.502 326.531 579.904 337.098 578.435 341.866C568.3 347.359 567.602 331.567 568.52 322.984Z" fill="#F2F2F2"/>
</svg>
