<svg width="62" height="50" viewBox="0 0 62 50" fill="none" xmlns="http://www.w3.org/2000/svg">
<rect x="3.48918" y="20.5846" width="49" height="25" transform="rotate(-17.9652 3.48918 20.5846)" stroke="#FFD2B9" stroke-width="2"/>
<rect x="7.26872" y="22.513" width="43" height="19" transform="rotate(-17.9652 7.26872 22.513)" stroke="#FFD2B9" stroke-width="2"/>
<path d="M25.2935 23.8861L23.0562 24.6116L22.5682 23.1067L24.8055 22.3813L25.2935 23.8861ZM20.9121 25.3068L19.5936 25.7343L20.1377 27.4123L29.2868 24.4457L28.7427 22.7677L27.4376 23.1909L26.9496 21.686L28.3879 21.2197L27.8438 19.5417L18.4417 22.5903L18.9858 24.2683L20.4241 23.8019L20.9121 25.3068ZM28.7216 30.7368L24.2603 32.1834L23.9969 31.371L28.4582 29.9244L28.7216 30.7368ZM31.1086 26.3423L30.5645 24.6643L19.258 28.3304L19.8021 30.0084L24.3833 28.523L24.6424 29.322L21.3397 30.3929L22.6826 34.5346L31.3789 31.7149L30.0359 27.5731L26.7998 28.6225L26.5407 27.8234L31.1086 26.3423ZM37.2346 18.8221L37.7831 20.5134L39.3811 19.9952L40.0893 22.1793L42.2467 21.4798L40.2086 15.1939L38.0511 15.8935L38.8327 18.3039L37.2346 18.8221ZM38.7008 20.8928C36.7299 20.9874 35.6567 20.1285 35.1694 19.0797L37.4067 18.3542L36.8626 16.6762L30.124 18.8612L30.6681 20.5392L32.9188 19.8094C33.1483 20.9713 32.7732 22.4469 31.0721 23.6461L32.615 25.0002C33.928 24.1476 34.5929 22.9754 34.8111 21.742C35.6504 22.5148 36.7978 22.9669 38.2461 22.8947L38.7008 20.8928ZM37.4521 27.9353L37.314 27.5092L43.5465 25.4883L42.3892 21.9192L34.0126 24.6353L34.5394 26.2601L40.7853 24.2349L40.9191 24.6477L34.6866 26.6686L35.8525 30.2643L44.5221 27.4532L43.991 25.8151L37.4521 27.9353Z" fill="#FFD2B9"/>
</svg>
