<svg width="131" height="102" viewBox="0 0 131 102" fill="none" xmlns="http://www.w3.org/2000/svg">
<rect x="27.0615" y="32.6824" width="103.889" height="69.3177" fill="#CD3A27"/>
<path d="M0.15918 7.51318L27.0609 32.6824V101.992L0.15918 71.4692V7.51318Z" fill="#EE5440"/>
<path d="M27.0363 32.6822L0 7.3252H104.21L130.663 32.6822H27.0363Z" fill="#F84A34"/>
<ellipse cx="32.5401" cy="7.87324" rx="17.1445" ry="6.16157" fill="#F84A34"/>
<path d="M33.1237 13.2647C20.0501 13.5385 15.6144 9.52782 15.3955 7.35986V13.5214C17.4383 17.7147 29.5489 18.2852 33.1237 18.057C45.6137 17.5778 49.0766 15.0048 49.6116 13.5214V7.35986C49.3782 12.1522 38.7656 13.2077 33.1237 13.2647Z" fill="#C13827"/>
<ellipse cx="51.9444" cy="19.6706" rx="17.1445" ry="6.16157" fill="#F84A34"/>
<path d="M52.528 25.0618C39.4544 25.3357 35.0187 21.3249 34.7998 19.157V25.3186C36.8426 29.5118 48.9532 30.0824 52.528 29.8542C65.018 29.3749 68.4809 26.8019 69.0159 25.3186V19.157C68.7825 23.9493 58.1699 25.0048 52.528 25.0618Z" fill="#C13827"/>
<ellipse cx="83.7529" cy="6.16157" rx="17.1445" ry="6.16157" fill="#F84A34"/>
<path d="M84.3366 11.553C71.263 11.8269 66.8273 7.81615 66.6084 5.64819V11.8098C68.6512 16.0031 80.7618 16.5736 84.3366 16.3454C96.8266 15.8661 100.29 13.2931 100.825 11.8098V5.64819C100.591 10.4405 89.9785 11.496 84.3366 11.553Z" fill="#C13827"/>
<ellipse cx="100.971" cy="19.6831" rx="17.1445" ry="6.16157" fill="#F84A34"/>
<path d="M101.554 25.0743C88.4807 25.3481 84.045 21.3374 83.8262 19.1694V25.331C85.8689 29.5243 97.9795 30.0948 101.554 29.8666C114.044 29.3874 117.507 26.8143 118.042 25.331V19.1694C117.809 23.9618 107.196 25.0172 101.554 25.0743Z" fill="#C13827"/>
</svg>
